<svg width="18" height="10" viewBox="0 0 18 10" fill="none" xmlns="http://www.w3.org/2000/svg">
<path d="M9.00003 7.82607L1.53817 0.362414C1.3692 0.193439 1.14002 0.0985115 0.901052 0.0985115C0.662086 0.0985115 0.432909 0.193439 0.263933 0.362414C0.0949588 0.531389 3.01137e-05 0.760567 3.01242e-05 0.999533C3.01346e-05 1.2385 0.0949589 1.46768 0.263933 1.63665L8.36291 9.73563C8.4465 9.81943 8.54581 9.88592 8.65513 9.93128C8.76446 9.97665 8.88166 10 9.00003 10C9.1184 10 9.2356 9.97665 9.34493 9.93128C9.45425 9.88592 9.55356 9.81943 9.63715 9.73563L17.7361 1.63665C17.9051 1.46768 18 1.2385 18 0.999533C18 0.760567 17.9051 0.531388 17.7361 0.362413C17.5672 0.193439 17.338 0.0985108 17.099 0.0985108C16.86 0.0985108 16.6309 0.193439 16.4619 0.362413L9.00003 7.82607Z" fill="black"/>
</svg>
