<svg width="18" height="10" viewBox="0 0 18 10" fill="none" xmlns="http://www.w3.org/2000/svg">
<path d="M9 7.72743L1.53814 0.263781C1.36917 0.0948064 1.13999 -0.000121333 0.901022 -0.000121323C0.662056 -0.000121312 0.432876 0.0948065 0.263902 0.263781C0.0949283 0.432756 -4.03868e-07 0.661935 -3.93423e-07 0.900901C-3.82977e-07 1.13987 0.0949284 1.36905 0.263902 1.53802L8.36288 9.63699C8.44647 9.7208 8.54578 9.78728 8.6551 9.83265C8.76443 9.87802 8.88163 9.90137 9 9.90137C9.11837 9.90137 9.23557 9.87802 9.3449 9.83265C9.45422 9.78728 9.55353 9.7208 9.63712 9.63699L17.7361 1.53802C17.9051 1.36904 18 1.13987 18 0.9009C18 0.661934 17.9051 0.432755 17.7361 0.263781C17.5671 0.0948057 17.3379 -0.000122041 17.099 -0.000122031C16.86 -0.00012202 16.6308 0.0948058 16.4619 0.263781L9 7.72743Z" fill="#FF303C"/>
</svg>
