<svg width="10" height="18" viewBox="0 0 10 18" fill="none" xmlns="http://www.w3.org/2000/svg">
<path d="M7.72743 9L0.263779 16.4619C0.0948043 16.6308 -0.000123544 16.86 -0.000123565 17.099C-0.000123586 17.3379 0.0948042 17.5671 0.263779 17.7361C0.432754 17.9051 0.661932 18 0.900898 18C1.13986 18 1.36904 17.9051 1.53802 17.7361L9.63699 9.63712C9.72079 9.55353 9.78728 9.45422 9.83265 9.3449C9.87801 9.23557 9.90137 9.11837 9.90137 9C9.90137 8.88163 9.87801 8.76443 9.83265 8.6551C9.78728 8.54578 9.72079 8.44647 9.63699 8.36288L1.53802 0.263903C1.36905 0.094928 1.13987 -7.65955e-07 0.9009 -7.86846e-07C0.661934 -8.07737e-07 0.432755 0.0949279 0.263781 0.263903C0.0948057 0.432877 -0.000122128 0.662056 -0.000122149 0.901022C-0.00012217 1.13999 0.0948056 1.36917 0.26378 1.53814L7.72743 9Z" fill="black" fill-opacity="0.2"/>
</svg>
