<svg width="10" height="18" viewBox="0 0 10 18" fill="none" xmlns="http://www.w3.org/2000/svg">
<path d="M2.17393 9L9.63759 1.53814C9.80656 1.36917 9.90149 1.13999 9.90149 0.901024C9.90149 0.662058 9.80656 0.43288 9.63759 0.263904C9.46861 0.0949304 9.23944 1.61547e-06 9.00047 1.57369e-06C8.7615 1.53191e-06 8.53233 0.0949302 8.36335 0.263904L0.264377 8.36288C0.180574 8.44647 0.114085 8.54578 0.0687193 8.6551C0.0233534 8.76443 1.59431e-06 8.88163 1.57361e-06 9C1.55291e-06 9.11837 0.0233533 9.23557 0.0687191 9.3449C0.114085 9.45422 0.180573 9.55353 0.264377 9.63712L8.36335 17.7361C8.53232 17.9051 8.7615 18 9.00047 18C9.23943 18 9.46861 17.9051 9.63759 17.7361C9.80656 17.5671 9.90149 17.3379 9.90149 17.099C9.90149 16.86 9.80656 16.6308 9.63759 16.4619L2.17393 9Z" fill="black"/>
</svg>
