<svg width="14" height="24" viewBox="0 0 14 24" fill="none" xmlns="http://www.w3.org/2000/svg">
<path d="M2.89861 12L12.8501 2.05086C13.0754 1.82556 13.202 1.51999 13.202 1.20136C13.202 0.882742 13.0754 0.577169 12.8501 0.35187C12.6248 0.12657 12.3193 0 12.0007 0C11.682 0 11.3765 0.12657 11.1512 0.35187L0.352531 11.1505C0.240793 11.262 0.152142 11.3944 0.091654 11.5401C0.0311662 11.6859 3.05176e-05 11.8422 3.05176e-05 12C3.05176e-05 12.1578 0.0311662 12.3141 0.091654 12.4599C0.152142 12.6056 0.240793 12.738 0.352531 12.8495L11.1512 23.6481C11.3765 23.8734 11.682 24 12.0007 24C12.3193 24 12.6248 23.8734 12.8501 23.6481C13.0754 23.4228 13.202 23.1173 13.202 22.7986C13.202 22.48 13.0754 22.1744 12.8501 21.9491L2.89861 12Z" fill="#F8F8F8"/>
</svg>
