<svg width="68" height="55" viewBox="0 0 68 55" fill="none" xmlns="http://www.w3.org/2000/svg">
<path d="M67.8225 30.874H0.346191V36.0397H67.8225V30.874Z" fill="#FF303C"/>
<path fill-rule="evenodd" clip-rule="evenodd" d="M9.02851 14.3189C8.47977 15.6443 8.19754 17.0647 8.19797 18.4992V25.0886H0.736827V18.4798C0.734281 16.064 1.20788 13.6715 2.13059 11.4389C3.0533 9.20627 4.40702 7.17743 6.11432 5.46833C7.82161 3.75924 9.84902 2.4034 12.0806 1.47834C14.3123 0.553284 16.7043 0.0771484 19.1201 0.0771484C21.5358 0.0771484 23.9279 0.553284 26.1596 1.47834C28.3912 2.4034 30.4186 3.75924 32.1259 5.46833C32.7204 6.06351 33.2721 6.69747 33.7776 7.3653C34.2804 6.70182 34.8304 6.06963 35.4254 5.474C38.8724 2.02339 43.5482 0.0822825 48.4255 0.0771484C53.3062 0.0771484 57.987 2.01599 61.4381 5.46716C64.8893 8.91832 66.8281 13.5991 66.8281 18.4798V25.0886H59.367L59.3509 18.4992C59.3509 17.0646 59.0682 15.644 58.5191 14.3187C57.9701 12.9934 57.1653 11.7892 56.1507 10.7749C55.1362 9.76066 53.9317 8.9562 52.6062 8.40751C51.2807 7.85881 49.8601 7.57661 48.4255 7.57703C45.5288 7.57703 42.7507 8.72775 40.7024 10.7761C38.6562 12.8222 37.5058 15.5966 37.5034 18.49C37.5034 18.4931 37.5034 18.4961 37.5034 18.4992L37.5034 25.0886H30.0422V18.4992C30.0422 15.6024 28.8915 12.8243 26.8432 10.7761C24.7949 8.72775 22.0168 7.57703 19.1201 7.57703C17.6856 7.57661 16.2652 7.85883 14.9399 8.40757C13.6146 8.95631 12.4103 9.76081 11.396 10.7751C10.3817 11.7894 9.57725 12.9936 9.02851 14.3189Z" fill="#FF303C"/>
<path d="M17.4024 42.5357C18.074 42.9484 18.6017 43.5584 18.9134 44.2824C19.2967 45.1826 19.4806 46.1551 19.4525 47.1332V54.0261H15.701V47.6465C15.7397 47.063 15.5792 46.4836 15.2458 46.0032C15.0868 45.8129 14.8854 45.6626 14.6577 45.5644C14.43 45.4663 14.1825 45.4231 13.935 45.4382C13.5939 45.4358 13.2588 45.5274 12.9664 45.7029C12.6743 45.8804 12.432 46.1292 12.2626 46.4261C12.0873 46.7223 11.9772 47.0525 11.9397 47.3947V54.0196H8.18818V47.6465C8.22685 47.063 8.06639 46.4836 7.73298 46.0032C7.57621 45.8154 7.37792 45.6666 7.1538 45.5685C6.92969 45.4705 6.68588 45.4259 6.44157 45.4382C6.07146 45.4329 5.70822 45.5386 5.39872 45.7417C5.0896 45.9423 4.83988 46.2222 4.67553 46.552C4.50528 46.887 4.41785 47.2579 4.4205 47.6336V54.0261H0.668945V42.2678H3.51973L3.96204 43.4236C4.93794 42.4841 6.23955 41.9589 7.59414 41.9578C8.30993 41.9447 9.01812 42.1065 9.65718 42.4292C10.2617 42.7487 10.7683 43.2263 11.1229 43.811C11.6061 43.2299 12.2142 42.7653 12.9019 42.4518C13.5947 42.1258 14.351 41.9571 15.1166 41.9578C15.9174 41.9349 16.7088 42.135 17.4024 42.5357Z" fill="#FF303C"/>
<path d="M26.8169 49.3703C26.9989 49.93 27.3639 50.4121 27.8533 50.7392C28.3524 51.0663 28.9387 51.235 29.5353 51.2234C29.9764 51.233 30.4151 51.1562 30.8267 50.9975C31.21 50.8422 31.5646 50.6239 31.876 50.3518L33.5839 52.8183C33.0239 53.3179 32.3742 53.7068 31.6694 53.9645C30.9116 54.2421 30.1098 54.3799 29.3029 54.3713C28.1879 54.3875 27.0896 54.0996 26.126 53.5383C25.2049 53.0018 24.4445 52.228 23.9241 51.2977C23.3959 50.3635 23.1221 49.307 23.1299 48.2338C23.1201 47.1509 23.3797 46.0824 23.8854 45.1248C24.3668 44.197 25.0896 43.4163 25.9775 42.8648C26.8859 42.3044 27.9355 42.0154 29.0026 42.0318C30.1136 42.0002 31.2128 42.2666 32.186 42.8034C33.059 43.3011 33.7629 44.0489 34.207 44.9504C34.6808 45.9367 34.9164 47.0204 34.8947 48.1144C34.8942 48.5339 34.8607 48.9527 34.7946 49.367L26.8169 49.3703ZM27.6208 45.5315C27.1818 45.8908 26.875 46.3861 26.7491 46.9392H31.4563C31.3501 46.3814 31.063 45.8742 30.6395 45.496C30.2186 45.1639 29.6934 44.9923 29.1576 45.0118C28.6026 44.9978 28.0598 45.1757 27.6208 45.5154V45.5315Z" fill="#FF303C"/>
<path d="M48.5676 42.629C49.2762 43.041 49.846 43.6547 50.2045 44.3918C50.613 45.2465 50.8132 46.1858 50.7888 47.1328V54.0258H47.0373V47.8108C47.0738 47.1811 46.8785 46.5599 46.4884 46.0642C46.3036 45.8561 46.0747 45.6918 45.8183 45.5834C45.5619 45.4751 45.2846 45.4254 45.0065 45.4379C44.5889 45.4344 44.1774 45.539 43.812 45.7413C43.4573 45.9336 43.159 46.2152 42.9467 46.5582C42.7393 46.8786 42.6273 47.2515 42.6239 47.6333V54.0258H38.8723V42.2674H41.7586L42.3042 43.6783C42.7976 43.1606 43.3951 42.7535 44.0574 42.4838C44.7099 42.1916 45.4152 42.0356 46.1301 42.0253C46.982 42.0048 47.8238 42.2133 48.5676 42.629Z" fill="#FF303C"/>
<path d="M63.0057 42.2676H66.7572V54.0323H63.871L63.3285 52.6247C62.8347 53.141 62.2373 53.547 61.5754 53.816C60.9219 54.1089 60.2156 54.266 59.4995 54.2777C58.6492 54.2947 57.8099 54.0841 57.0684 53.6675C56.359 53.2552 55.789 52.6402 55.4316 51.9015C55.025 51.0462 54.8259 50.1072 54.8504 49.1605V42.2676H58.602V48.4825C58.5626 49.1135 58.7581 49.7369 59.1508 50.2324C59.3356 50.4405 59.5646 50.6047 59.8209 50.7131C60.0773 50.8215 60.3547 50.8712 60.6327 50.8587C61.0498 50.8625 61.4606 50.7567 61.824 50.552C62.1779 50.3601 62.476 50.0798 62.6893 49.7384C62.8964 49.4166 63.0083 49.0427 63.0122 48.6601L63.0057 42.2676Z" fill="#FF303C"/>
</svg>
