<svg width="24" height="24" viewBox="0 0 24 24" fill="none" xmlns="http://www.w3.org/2000/svg">
<path fill-rule="evenodd" clip-rule="evenodd" d="M8.90997 2C8.90997 1.44772 8.46226 1 7.90997 1C7.35769 1 6.90997 1.44772 6.90997 2V2.97H5.94C3.21171 2.97 1 5.18171 1 7.91V9.88V17.76C1 20.4883 3.21171 22.7 5.94 22.7H17.76C20.4883 22.7 22.7 20.4883 22.7 17.76V9.88V7.91C22.7 5.18171 20.4883 2.97 17.76 2.97H16.79V2C16.79 1.44772 16.3423 1 15.79 1C15.2377 1 14.79 1.44772 14.79 2V2.97H8.90997V2ZM20.7 8.88V7.91C20.7 6.28628 19.3837 4.97 17.76 4.97H16.79V5.94C16.79 6.49228 16.3423 6.94 15.79 6.94C15.2377 6.94 14.79 6.49228 14.79 5.94V4.97H8.90997V5.94C8.90997 6.49228 8.46226 6.94 7.90997 6.94C7.35769 6.94 6.90997 6.49228 6.90997 5.94V4.97H5.94C4.31628 4.97 3 6.28628 3 7.91V8.88H20.7ZM3 10.88H20.7V17.76C20.7 19.3837 19.3837 20.7 17.76 20.7H5.94C4.31628 20.7 3 19.3837 3 17.76V10.88Z" fill="black"/>
</svg>
