<svg width="168" height="169" viewBox="0 0 168 169" fill="none" xmlns="http://www.w3.org/2000/svg">
<path d="M0 0H168V169H0V0Z" fill="#E8E8E8"/>
<circle cx="84" cy="84" r="50" fill="white"/>
<path fill-rule="evenodd" clip-rule="evenodd" d="M90.2576 74.2011C90.9979 59.6556 98.4394 48.6686 100.738 46.4998C102.777 44.5517 103.245 46.0582 103.232 51.6946V118.967C103.232 119.598 102.981 120.202 102.536 120.648C102.09 121.094 101.485 121.344 100.855 121.344C100.225 121.344 99.6202 121.094 99.1745 120.648C98.7288 120.202 98.4784 119.598 98.4784 118.967V103.591C98.4919 102.785 98.3463 101.985 98.0499 101.237C97.7535 100.488 97.3121 99.8049 96.7511 99.2271C95.3355 97.4478 89.5173 88.7465 90.2576 74.2011ZM79.9596 54.3456C79.9596 47.9949 80.3232 46.891 81.2583 46.891C82.1803 46.891 82.544 48.7871 82.7128 54.9819C82.779 57.4114 82.9171 61.7583 83.0606 66.2728C83.2829 73.2698 83.518 80.6692 83.518 81.9559C83.518 84.0728 82.6609 85.904 79.8687 87.6313C77.0764 89.3585 76.2323 90.0339 76.0635 92.8261C75.8946 95.6183 76.0635 118.917 76.0635 118.917C76.0635 119.547 75.8131 120.152 75.3674 120.598C74.9217 121.043 74.3172 121.294 73.6868 121.294C73.0565 121.294 72.452 121.043 72.0063 120.598C71.5606 120.152 71.3102 119.547 71.3102 118.917C71.3102 118.917 71.479 95.5663 71.3102 92.8261C71.1414 90.0858 70.2972 89.4105 67.505 87.6313C64.7128 85.8521 63.8687 84.0728 63.8687 81.9559C63.8687 80.5496 64.1438 71.875 64.3818 64.3709C64.502 60.5797 64.6128 57.0873 64.6738 54.9819C64.8557 48.7092 65.2453 46.891 66.1544 46.891C67.0635 46.891 67.4531 47.9949 67.4531 54.3456C67.4531 58.1897 67.57 68.7871 67.6998 75.9819C67.7388 77.93 69.7777 78.1118 69.7777 75.9819C69.7777 75.745 69.7915 74.8001 69.8118 73.3958C69.8708 69.3339 69.9855 61.4286 69.9855 55.6962C69.9903 54.9653 69.9921 54.2814 69.9939 53.6439C70.0064 49.0368 70.0123 46.8521 71.0505 46.8521C72.087 46.8521 72.1145 48.4503 72.1932 53.0136C72.2043 53.6534 72.2163 54.3516 72.2323 55.1118C72.4531 62.6443 72.4531 74.3066 72.4531 76.5923C72.4215 76.774 72.429 76.9603 72.4751 77.1388C72.5212 77.3174 72.6047 77.4841 72.7202 77.6278C72.8357 77.7716 72.9805 77.8891 73.1449 77.9725C73.3093 78.056 73.4896 78.1034 73.6738 78.1118C73.8647 78.1146 74.0538 78.0753 74.2277 77.9967C74.4016 77.9181 74.556 77.8021 74.68 77.657C74.804 77.5119 74.8945 77.3413 74.9451 77.1573C74.9956 76.9733 75.005 76.7804 74.9725 76.5923C74.9336 74.3066 75.0115 62.6443 75.1803 55.1118C75.2027 54.1455 75.2167 53.2794 75.2293 52.5059C75.2972 48.3311 75.3212 46.8521 76.3622 46.8521C77.4549 46.8521 77.4474 49.0732 77.4314 53.7591C77.4293 54.3636 77.4271 55.0091 77.4271 55.6962C77.461 60.7305 77.5391 67.4407 77.5893 71.7517C77.6161 74.0466 77.6349 75.6616 77.6349 75.9819C77.6349 78.1508 79.7128 77.9689 79.7128 75.9819C79.8427 68.7871 79.9596 58.2417 79.9596 54.3456Z" fill="#E8E8E8"/>
</svg>
