<svg width="15" height="15" viewBox="0 0 15 15" fill="none" xmlns="http://www.w3.org/2000/svg">
<path d="M14.25 6H0.75C0.551088 6 0.360322 6.07902 0.21967 6.21967C0.0790176 6.36032 0 6.55109 0 6.75C3.34441e-05 8.06649 0.346596 9.35978 1.00486 10.4999C1.66312 11.64 2.60988 12.5868 3.75 13.245V14.25C3.75 14.4489 3.82902 14.6397 3.96967 14.7803C4.11032 14.921 4.30109 15 4.5 15H10.5C10.6989 15 10.8897 14.921 11.0303 14.7803C11.171 14.6397 11.25 14.4489 11.25 14.25V13.245C12.3901 12.5868 13.3369 11.64 13.9951 10.4999C14.6534 9.35978 15 8.06649 15 6.75C15 6.55109 14.921 6.36032 14.7803 6.21967C14.6397 6.07902 14.4489 6 14.25 6ZM5.25 5.25V4.4475C5.25048 3.56491 4.90597 2.7171 4.29 2.085C4.11611 1.90929 3.97884 1.70081 3.88614 1.47164C3.79345 1.24248 3.74717 0.997188 3.75 0.75V0H2.25V0.75C2.2456 1.63777 2.5904 2.49169 3.21 3.1275C3.55754 3.47874 3.75171 3.95339 3.75 4.4475V5.25H5.25ZM8.25 5.25V4.4475C8.25047 3.56491 7.90597 2.7171 7.29 2.085C7.11611 1.90929 6.97884 1.70081 6.88614 1.47164C6.79345 1.24248 6.74717 0.997188 6.75 0.75V0H5.25V0.75C5.24952 1.63259 5.59403 2.4804 6.21 3.1125C6.38389 3.28821 6.52116 3.49669 6.61386 3.72586C6.70655 3.95502 6.75283 4.20031 6.75 4.4475V5.25H8.25ZM11.25 5.25V4.4475C11.2505 3.56491 10.906 2.7171 10.29 2.085C10.1161 1.90929 9.97884 1.70081 9.88614 1.47164C9.79345 1.24248 9.74717 0.997188 9.75 0.75V0H8.25V0.75C8.24953 1.63259 8.59403 2.4804 9.21 3.1125C9.38389 3.28821 9.52116 3.49669 9.61386 3.72586C9.70655 3.95502 9.75283 4.20031 9.75 4.4475V5.25H11.25Z" fill="#1D419D"/>
</svg>
