<svg width="10" height="12" viewBox="0 0 10 12" fill="none" xmlns="http://www.w3.org/2000/svg">
<path d="M8.52666 10.4767H0.663958C0.515007 10.4767 0.372156 10.5358 0.266831 10.6412C0.161507 10.7465 0.102336 10.8893 0.102336 11.0383C0.102336 11.1872 0.161507 11.3301 0.266831 11.4354C0.372156 11.5407 0.515007 11.5999 0.663958 11.5999H8.52666C8.67562 11.5999 8.81847 11.5407 8.92379 11.4354C9.02912 11.3301 9.08829 11.1872 9.08829 11.0383C9.08829 10.8893 9.02912 10.7465 8.92379 10.6412C8.81847 10.5358 8.67562 10.4767 8.52666 10.4767ZM0.663958 9.35341H0.714504L3.05647 9.14C3.31301 9.11444 3.55296 9.00141 3.73603 8.81987L8.79063 3.76528C8.98681 3.55802 9.09284 3.28144 9.08547 2.99615C9.0781 2.71087 8.95794 2.44013 8.75131 2.24328L7.21247 0.704437C7.01163 0.515786 6.74845 0.40754 6.473 0.400291C6.19755 0.393043 5.92904 0.487296 5.71855 0.665123L0.663958 5.71972C0.482423 5.90279 0.36939 6.14274 0.343833 6.39928L0.102336 8.74125C0.0947704 8.82351 0.105444 8.90642 0.133597 8.98408C0.161749 9.06175 0.206687 9.13224 0.265206 9.19054C0.317684 9.24259 0.379921 9.28378 0.448348 9.31173C0.516774 9.33967 0.590045 9.35384 0.663958 9.35341ZM6.43182 1.49071L7.96504 3.02394L6.8418 4.1191L5.33665 2.61395L6.43182 1.49071Z" fill="white"/>
</svg>
