<svg width="21" height="22" viewBox="0 0 21 22" fill="none" xmlns="http://www.w3.org/2000/svg">
<path fill-rule="evenodd" clip-rule="evenodd" d="M20.9667 21.5L18.8749 21.5H3.12494C2.40033 21.5 1.78168 21.2437 1.26898 20.731C0.756287 20.2183 0.499939 19.5996 0.499939 18.875V3.125C0.499939 2.40039 0.756287 1.78174 1.26898 1.26905C1.78168 0.75635 2.40033 0.500003 3.12494 0.500003H18.8749L20.9667 0.5V21.5ZM15.9116 15.481C15.3989 15.9937 14.7802 16.25 14.0556 16.25C13.331 16.25 12.7123 15.9937 12.1996 15.481C11.6869 14.9683 11.4306 14.3496 11.4306 13.625C11.4306 12.9004 11.6869 12.2817 12.1996 11.769C12.7123 11.2563 13.331 11 14.0556 11C14.7802 11 15.3989 11.2563 15.9116 11.769C16.4243 12.2817 16.6806 12.9004 16.6806 13.625C16.6806 14.3496 16.4243 14.9683 15.9116 15.481ZM5.63715 6.51904C6.14984 6.00635 6.76849 5.75 7.4931 5.75C8.21771 5.75 8.83636 6.00635 9.34906 6.51904C9.86175 7.03174 10.1181 7.65039 10.1181 8.375C10.1181 9.09961 9.86175 9.71826 9.34906 10.231C8.83636 10.7437 8.21771 11 7.4931 11C6.76849 11 6.14984 10.7437 5.63715 10.231C5.12445 9.71826 4.8681 9.09961 4.8681 8.375C4.8681 7.65039 5.12445 7.03174 5.63715 6.51904ZM13.2968 5.77051C13.4609 5.72949 13.6147 5.75342 13.7582 5.84229C13.9018 5.93115 13.9975 6.06104 14.0453 6.23194C14.0932 6.40283 14.0761 6.56348 13.9941 6.71387L8.64154 15.9424C8.55951 16.0928 8.43646 16.1919 8.2724 16.2397C8.10834 16.2876 7.95111 16.2671 7.80072 16.1782C7.65033 16.0894 7.55463 15.9561 7.51361 15.7783C7.47259 15.6006 7.4931 15.4365 7.57513 15.2861L12.9072 6.07813C13.0029 5.91406 13.1328 5.81153 13.2968 5.77051Z" fill="black" fill-opacity="0.2"/>
<path d="M7.50336 9.6875C7.14105 9.6875 6.83002 9.55762 6.57025 9.29785C6.31049 9.03809 6.1806 8.72705 6.1806 8.36475C6.1806 8.00244 6.31049 7.69483 6.57025 7.4419C6.83002 7.18897 7.14105 7.0625 7.50336 7.0625C7.86566 7.0625 8.17328 7.18897 8.42621 7.4419C8.67914 7.69483 8.8056 8.00244 8.8056 8.36475C8.8056 8.72705 8.67914 9.03809 8.42621 9.29785C8.17328 9.55762 7.86566 9.6875 7.50336 9.6875Z" fill="black" fill-opacity="0.2"/>
<path d="M14.0659 12.3125C14.4282 12.3125 14.7358 12.439 14.9887 12.6919C15.2416 12.9448 15.3681 13.2524 15.3681 13.6147C15.3681 13.9771 15.2416 14.2881 14.9887 14.5479C14.7358 14.8076 14.4282 14.9375 14.0659 14.9375C13.7036 14.9375 13.3925 14.8076 13.1327 14.5479C12.873 14.2881 12.7431 13.9771 12.7431 13.6147C12.7431 13.2524 12.873 12.9448 13.1327 12.6919C13.3925 12.439 13.7036 12.3125 14.0659 12.3125Z" fill="black" fill-opacity="0.2"/>
</svg>
