<svg width="22" height="23" viewBox="0 0 22 23" fill="none" xmlns="http://www.w3.org/2000/svg">
<rect y="0.809082" width="22" height="22.0388" rx="2" fill="black" fill-opacity="0.2"/>
<path d="M18.0189 11.8155C18.026 15.6451 14.8945 18.7766 11.0546 18.7793C9.3961 18.7805 7.87271 18.2039 6.67557 17.2403C6.36428 16.9897 6.34101 16.5245 6.62389 16.2423L6.94052 15.9266C7.18246 15.6853 7.5687 15.6589 7.83674 15.871C8.71874 16.569 9.83495 16.9856 11.0495 16.9856C13.9077 16.9856 16.2204 14.6787 16.2204 11.8286C16.2204 8.97814 13.9072 6.67166 11.0495 6.67166C9.67771 6.67166 8.43179 7.2033 7.50668 8.0711L8.93299 9.49359C9.21627 9.7761 9.01564 10.2591 8.61507 10.2591H4.52972C4.28138 10.2591 4.08008 10.0584 4.08008 9.81068V5.73631C4.08008 5.33682 4.5644 5.13673 4.84767 5.41922L6.23515 6.80296C7.48636 5.61044 9.18215 4.87793 11.0495 4.87793C14.8942 4.87793 18.0118 7.98276 18.0189 11.8155ZM12.9349 14.0236L13.2109 13.6696C13.4396 13.3763 13.3866 12.9537 13.0926 12.7257L11.9488 11.8384V8.91382C11.9488 8.54232 11.6468 8.24117 11.2743 8.24117H10.8247C10.4522 8.24117 10.1502 8.54232 10.1502 8.91382V12.7157L11.9884 14.1416C12.2824 14.3696 12.7062 14.3168 12.9349 14.0236Z" fill="white"/>
</svg>
