<svg width="22" height="23" viewBox="0 0 22 23" fill="none" xmlns="http://www.w3.org/2000/svg">
<path d="M19.6429 0.983887H2.35714C1.73199 0.983887 1.13244 1.23156 0.690391 1.67242C0.248341 2.11328 0 2.71122 0 3.33469L0 20.5739C0 21.1974 0.248341 21.7953 0.690391 22.2362C1.13244 22.677 1.73199 22.9247 2.35714 22.9247H19.6429C20.268 22.9247 20.8676 22.677 21.3096 22.2362C21.7517 21.7953 22 21.1974 22 20.5739V3.33469C22 2.71122 21.7517 2.11328 21.3096 1.67242C20.8676 1.23156 20.268 0.983887 19.6429 0.983887ZM18.838 16.0373L18.1014 19.2207C18.064 19.3826 17.9727 19.527 17.8424 19.6304C17.7121 19.7339 17.5505 19.7902 17.3839 19.7903C9.52679 19.7903 3.14286 13.4378 3.14286 5.58754C3.1487 5.42301 3.20734 5.2647 3.31015 5.13589C3.41296 5.00709 3.55451 4.91459 3.71397 4.87202L6.90594 4.13739C6.96039 4.12591 7.01579 4.11951 7.07143 4.11829C7.21387 4.12546 7.35179 4.17053 7.47088 4.24881C7.58996 4.3271 7.68586 4.43574 7.74862 4.56347L9.22183 7.99173C9.25791 8.08416 9.278 8.18203 9.28125 8.28117C9.26926 8.49864 9.1723 8.70276 9.01116 8.84977L7.15049 10.368C8.2779 12.7511 10.2011 14.6691 12.5906 15.7935L14.1129 13.9378C14.2603 13.7771 14.465 13.6804 14.683 13.6684C14.7824 13.6716 14.8806 13.6917 14.9733 13.7277L18.4108 15.1969C18.5389 15.2594 18.6479 15.3551 18.7264 15.4738C18.8049 15.5926 18.8501 15.7302 18.8571 15.8723C18.8562 15.9278 18.8497 15.9831 18.838 16.0373Z" fill="black" fill-opacity="0.2"/>
</svg>
