<svg width="51" height="51" viewBox="0 0 51 51" fill="none" xmlns="http://www.w3.org/2000/svg">
<path d="M50.1421 28.3224H0.980774V32.0859H50.1421V28.3224Z" fill="#FF303C"/>
<path fill-rule="evenodd" clip-rule="evenodd" d="M7.30647 16.2608C6.90668 17.2264 6.70105 18.2613 6.70136 19.3064V24.1072H1.26539V19.2923C1.26353 17.5322 1.60859 15.789 2.28084 14.1624C2.9531 12.5358 3.93938 11.0577 5.18327 9.81248C6.42716 8.56728 7.90427 7.57945 9.53017 6.90548C11.1561 6.23151 12.8989 5.88461 14.6589 5.88461C16.419 5.88461 18.1618 6.23151 19.7877 6.90548C21.4136 7.57945 22.8907 8.56728 24.1346 9.81248C24.5677 10.2461 24.9697 10.708 25.338 11.1946C25.7043 10.7112 26.105 10.2506 26.5385 9.81661C29.0499 7.30259 32.4565 5.88835 36.01 5.88461C39.5659 5.88461 42.9762 7.2972 45.4906 9.81162C48.0051 12.326 49.4176 15.7363 49.4176 19.2923V24.1072H43.9816L43.9699 19.3064C43.9699 18.2612 43.764 17.2262 43.3639 16.2606C42.9639 15.295 42.3775 14.4177 41.6384 13.6787C40.8992 12.9397 40.0217 12.3536 39.0559 11.9539C38.0902 11.5541 37.0552 11.3485 36.01 11.3488C33.8995 11.3488 31.8755 12.1872 30.3832 13.6795C28.8921 15.1706 28.0539 17.1924 28.0524 19.3009C28.0524 19.3027 28.0524 19.3045 28.0524 19.3064L28.0524 24.1072H22.6165V19.3064C22.6165 17.1959 21.7781 15.1719 20.2858 13.6795C18.7934 12.1872 16.7694 11.3488 14.6589 11.3488C13.6138 11.3485 12.5789 11.5541 11.6133 11.9539C10.6477 12.3537 9.77037 12.9399 9.03138 13.6788C8.29239 14.4178 7.70627 15.2952 7.30647 16.2608Z" fill="#FF303C"/>
<path d="M13.4075 36.8186C13.8968 37.1193 14.2813 37.5637 14.5084 38.0912C14.7877 38.747 14.9217 39.4556 14.9012 40.1682V45.1902H12.1679V40.5422C12.1961 40.117 12.0792 39.6949 11.8362 39.3449C11.7205 39.2062 11.5737 39.0968 11.4078 39.0252C11.2419 38.9537 11.0616 38.9222 10.8813 38.9333C10.6328 38.9315 10.3886 38.9982 10.1756 39.1261C9.96274 39.2554 9.78626 39.4367 9.6628 39.653C9.53507 39.8688 9.45487 40.1094 9.42758 40.3587V45.1855H6.6943V40.5422C6.72248 40.117 6.60557 39.6949 6.36266 39.3449C6.24844 39.2081 6.10397 39.0997 5.94068 39.0282C5.7774 38.9568 5.59977 38.9243 5.42177 38.9333C5.15212 38.9294 4.88747 39.0064 4.66198 39.1544C4.43677 39.3006 4.25483 39.5044 4.13509 39.7448C4.01105 39.9888 3.94735 40.259 3.94928 40.5328V45.1902H1.216V36.6234H3.293L3.61526 37.4655C4.32627 36.781 5.27459 36.3983 6.2615 36.3976C6.78301 36.388 7.29898 36.5059 7.76457 36.741C8.20504 36.9738 8.57412 37.3217 8.83249 37.7477C9.18452 37.3244 9.62755 36.9859 10.1286 36.7575C10.6333 36.52 11.1844 36.3971 11.7422 36.3976C12.3256 36.3809 12.9022 36.5267 13.4075 36.8186Z" fill="#FF303C"/>
<path d="M20.2666 41.7983C20.3992 42.206 20.6652 42.5573 21.0217 42.7956C21.3853 43.0339 21.8125 43.1569 22.2472 43.1484C22.5685 43.1553 22.8881 43.0994 23.188 42.9838C23.4673 42.8706 23.7257 42.7116 23.9525 42.5133L25.1969 44.3104C24.7888 44.6744 24.3155 44.9577 23.802 45.1455C23.2499 45.3477 22.6657 45.4482 22.0778 45.4418C21.2655 45.4537 20.4653 45.2439 19.7632 44.835C19.0921 44.4441 18.5381 43.8803 18.159 43.2025C17.7742 42.5219 17.5747 41.7522 17.5804 40.9703C17.5732 40.1813 17.7623 39.4028 18.1308 38.7051C18.4815 38.0292 19.0081 37.4603 19.655 37.0585C20.3168 36.6503 21.0816 36.4397 21.8591 36.4517C22.6685 36.4286 23.4693 36.6228 24.1784 37.0138C24.8144 37.3765 25.3273 37.9213 25.6508 38.5781C25.9961 39.2966 26.1677 40.0862 26.1519 40.8832C26.1515 41.1889 26.1271 41.4941 26.0789 41.7959L20.2666 41.7983ZM20.8523 39.0015C20.5325 39.2632 20.309 39.6241 20.2172 40.027H23.6467C23.5693 39.6207 23.3602 39.2511 23.0516 38.9756C22.745 38.7336 22.3623 38.6086 21.972 38.6228C21.5676 38.6126 21.1722 38.7422 20.8523 38.9897V39.0015Z" fill="#FF303C"/>
<path d="M36.1135 36.8868C36.6298 37.187 37.0449 37.6341 37.3061 38.1711C37.6037 38.7938 37.7496 39.4782 37.7318 40.1682V45.1901H34.9986V40.6621C35.0251 40.2033 34.8829 39.7507 34.5987 39.3896C34.464 39.2379 34.2973 39.1183 34.1105 39.0393C33.9237 38.9604 33.7216 38.9241 33.519 38.9332C33.2147 38.9308 32.9149 39.0069 32.6487 39.1544C32.3903 39.2944 32.173 39.4996 32.0183 39.7495C31.8671 39.9829 31.7856 40.2546 31.7831 40.5328V45.1901H29.0498V36.6234H31.1527L31.5502 37.6513C31.9096 37.2741 32.345 36.9775 32.8275 36.781C33.3029 36.5681 33.8167 36.4544 34.3376 36.4469C34.9583 36.432 35.5716 36.5839 36.1135 36.8868Z" fill="#FF303C"/>
<path d="M46.6326 36.6234H49.3659V45.1948H47.263L46.8679 44.1693C46.5081 44.5454 46.0728 44.8412 45.5906 45.0372C45.1144 45.2506 44.5999 45.3651 44.0781 45.3736C43.4586 45.386 42.8471 45.2325 42.3069 44.929C41.79 44.6286 41.3747 44.1805 41.1143 43.6424C40.8181 43.0193 40.6731 42.3351 40.6909 41.6453V36.6234H43.4242V41.1514C43.3955 41.6111 43.5379 42.0653 43.8241 42.4263C43.9587 42.5779 44.1255 42.6976 44.3123 42.7765C44.4991 42.8555 44.7012 42.8917 44.9038 42.8826C45.2077 42.8854 45.5069 42.8083 45.7717 42.6592C46.0295 42.5193 46.2467 42.3151 46.4021 42.0664C46.553 41.8319 46.6345 41.5596 46.6373 41.2807L46.6326 36.6234Z" fill="#FF303C"/>
</svg>
