<svg width="36" height="36" viewBox="0 0 36 36" fill="none" xmlns="http://www.w3.org/2000/svg">
<path d="M31.9919 14.3998H27.5999L26.6639 8.8078C26.4753 7.96173 26.0611 7.18252 25.4653 6.5529C24.8695 5.92328 24.1143 5.46676 23.2799 5.2318C22.4416 4.96211 21.5684 4.81656 20.6879 4.7998H15.3119C14.4315 4.81656 13.5582 4.96211 12.7199 5.2318C11.8855 5.46676 11.1304 5.92328 10.5345 6.5529C9.93873 7.18252 9.52453 7.96173 9.33594 8.8078L8.39994 14.3998H4.00794C3.81891 14.3987 3.63229 14.4422 3.46327 14.5268C3.29426 14.6115 3.14763 14.7349 3.03534 14.8869C2.92305 15.039 2.84827 15.2154 2.81709 15.4019C2.78592 15.5883 2.79923 15.7795 2.85594 15.9598L7.36794 31.0798C7.59765 31.8102 8.05427 32.4484 8.67145 32.9016C9.28864 33.3547 10.0342 33.5993 10.7999 33.5998H25.1999C25.9615 33.5943 26.7017 33.3473 27.3141 32.8945C27.9265 32.4417 28.3795 31.8063 28.6079 31.0798L33.1199 15.9598C33.1761 15.7814 33.1897 15.5924 33.1598 15.4078C33.1299 15.2232 33.0572 15.0481 32.9477 14.8966C32.8381 14.745 32.6946 14.6212 32.5287 14.5349C32.3627 14.4487 32.1789 14.4024 31.9919 14.3998ZM10.8479 14.3998L11.7119 9.1918C11.8067 8.76658 12.0264 8.3794 12.3429 8.08003C12.6593 7.78065 13.0581 7.58277 13.4879 7.5118C14.0783 7.3246 14.6927 7.2214 15.3119 7.1998H20.6879C21.3143 7.219 21.9359 7.3222 22.5359 7.5118C22.9658 7.58277 23.3645 7.78065 23.681 8.08003C23.9975 8.3794 24.2172 8.76658 24.3119 9.1918L25.1519 14.3998H10.7519H10.8479Z" fill="#151522" fill-opacity="0.2"/>
</svg>
