<svg width="30" height="31" viewBox="0 0 30 31" fill="none" xmlns="http://www.w3.org/2000/svg">
<g clip-path="url(#clip0_1154_6759)">
<path fill-rule="evenodd" clip-rule="evenodd" d="M15 30.0111C23.2843 30.0111 30 23.2929 30 15.0056C30 6.71821 23.2843 0 15 0C6.71573 0 0 6.71821 0 15.0056C0 23.2929 6.71573 30.0111 15 30.0111Z" fill="#F1F1F1"/>
<path d="M21.4286 13.7549C22.0203 13.7549 22.5 14.3145 22.5 15.0049C22.5 15.6952 22.0203 16.2549 21.4286 16.2549L8.57143 16.2549C7.9797 16.2549 7.5 15.6952 7.5 15.0049C7.5 14.3145 7.9797 13.7549 8.57143 13.7549L21.4286 13.7549Z" fill="black" fill-opacity="0.4"/>
</g>
<defs>
<clipPath id="clip0_1154_6759">
<rect width="30" height="30.011" fill="white"/>
</clipPath>
</defs>
</svg>
