<svg width="30" height="31" viewBox="0 0 30 31" fill="none" xmlns="http://www.w3.org/2000/svg">
<g clip-path="url(#clip0_3111_6657)">
<path fill-rule="evenodd" clip-rule="evenodd" d="M14.82 30.2651C22.9386 30.2651 29.52 23.6006 29.52 15.3796C29.52 7.1586 22.9386 0.494141 14.82 0.494141C6.70141 0.494141 0.119995 7.1586 0.119995 15.3796C0.119995 23.6006 6.70141 30.2651 14.82 30.2651Z" fill="white"/>
<path d="M21.12 14.1392C21.6999 14.1392 22.17 14.6943 22.17 15.3792C22.17 16.064 21.6999 16.6192 21.12 16.6192L8.52 16.6192C7.9401 16.6192 7.47 16.064 7.47 15.3792C7.47 14.6943 7.9401 14.1392 8.52 14.1392L21.12 14.1392Z" fill="black" fill-opacity="0.4"/>
</g>
<defs>
<clipPath id="clip0_3111_6657">
<rect width="29.4" height="29.771" fill="white" transform="translate(0.119995 0.494141)"/>
</clipPath>
</defs>
</svg>
