<svg width="48" height="45" viewBox="0 0 48 45" fill="none" xmlns="http://www.w3.org/2000/svg">
<path d="M26.1695 10.4783C25.9135 10.215 25.5883 10.0826 25.1929 10.0826C24.6117 10.0826 24.1875 10.3637 23.9206 10.925C23.3507 10.2508 22.5718 9.91406 21.5844 9.91406C20.3989 9.91406 19.4016 10.3749 18.5938 11.2958C17.7865 12.2169 17.3828 13.3405 17.3828 14.666C17.3828 15.9915 17.7865 17.1148 18.5938 18.0363C19.4016 18.9575 20.3989 19.4178 21.5844 19.4178C22.5718 19.4178 23.3507 19.0811 23.9206 18.4064C24.1875 18.9686 24.6117 19.249 25.1929 19.249C25.5883 19.249 25.9135 19.1174 26.1695 18.8532C26.425 18.5899 26.5527 18.2667 26.5527 17.8843V11.4473C26.5527 11.0656 26.425 10.7426 26.1695 10.4783ZM23.3365 16.2621C23.005 16.6922 22.5484 16.907 21.9677 16.907C21.3861 16.907 20.9302 16.6922 20.5991 16.2621C20.2682 15.8315 20.1024 15.2997 20.1024 14.6658C20.1024 14.0324 20.2682 13.5004 20.5991 13.0699C20.9302 12.6398 21.3861 12.4249 21.9677 12.4249C22.5484 12.4249 23.005 12.6398 23.3365 13.0699C23.6678 13.5004 23.8335 14.0324 23.8335 14.6658C23.8335 15.2995 23.6678 15.8315 23.3365 16.2621Z" fill="#008FE5"/>
<path d="M29.6321 18.8531C29.3762 19.1173 29.0505 19.2487 28.656 19.2487C28.2604 19.2487 27.9348 19.1173 27.6794 18.8531C27.4233 18.5894 27.2957 18.266 27.2957 17.884V6.36472C27.2957 5.98295 27.4233 5.65955 27.6794 5.39569C27.9348 5.13164 28.2604 5 28.656 5C29.0505 5 29.3762 5.13164 29.6321 5.39569C29.8877 5.65955 30.0154 5.98295 30.0154 6.36472V17.8842C30.0154 18.266 29.8877 18.5894 29.6321 18.8531Z" fill="#008FE5"/>
<path d="M38.6414 11.2958C37.7699 10.3749 36.6599 9.91406 35.3112 9.91406C33.963 9.91406 32.8623 10.3691 32.0082 11.279C31.1534 12.1889 30.7263 13.3177 30.7263 14.6658C30.7263 16.0137 31.1534 17.1426 32.0082 18.0527C32.8623 18.9626 33.963 19.4178 35.3112 19.4178C36.6599 19.4178 37.7699 18.9574 38.6414 18.0363C39.4783 17.1372 39.8967 16.0139 39.8967 14.666C39.8967 13.3177 39.4785 12.1947 38.6414 11.2958ZM36.6802 16.2621C36.3487 16.6922 35.8925 16.907 35.3112 16.907C34.7298 16.907 34.2739 16.6922 33.943 16.2621C33.6115 15.8315 33.4459 15.2997 33.4459 14.6658C33.4459 14.0324 33.6115 13.5004 33.943 13.0699C34.2739 12.6398 34.7298 12.4249 35.3112 12.4249C35.8925 12.4249 36.3487 12.6398 36.6802 13.0699C37.0115 13.5004 37.1766 14.0324 37.1766 14.6658C37.1766 15.2995 37.0117 15.8315 36.6802 16.2621Z" fill="#008FE5"/>
<path d="M15.8775 10.2327C16.838 8.98433 17.3189 8.14327 17.3189 7.71046C17.3189 6.70915 16.6931 6.2085 15.4414 6.2085H8.83965C8.321 6.2085 7.91983 6.33202 7.63516 6.57867C7.35089 6.82591 7.20846 7.1464 7.20846 7.54113C7.20846 7.93643 7.35089 8.25731 7.63516 8.50416C7.91983 8.75101 8.321 8.87434 8.83965 8.87434H13.3737L7.56894 16.4273C7.18965 16.9215 7 17.3596 7 17.7423C7 18.8403 7.72097 19.3894 9.16232 19.3894H15.9721C17.0601 19.3894 17.6037 18.9296 17.6037 18.0098C17.6037 17.0905 17.0601 16.6306 15.9721 16.6306H10.9645L15.8775 10.2327Z" fill="#008FE5"/>
<path d="M13.0488 27.6494H11.2268V31.4631H13.0488C13.5962 31.4631 14.04 31.2831 14.3794 30.9234C14.7188 30.5636 14.8884 30.108 14.8884 29.5562C14.8884 29.0049 14.7186 28.5489 14.3794 28.1891C14.0402 27.8294 13.596 27.6494 13.0488 27.6494Z" fill="#32B34A"/>
<path d="M22.1389 31.2363C21.5605 31.2363 21.1072 31.4499 20.7778 31.8779C20.4486 32.3061 20.2837 32.8348 20.2837 33.4649C20.2837 34.0953 20.4486 34.6243 20.7778 35.0527C21.1072 35.4801 21.5605 35.6939 22.1389 35.6939C22.7165 35.6939 23.1706 35.4801 23.5002 35.0527C23.83 34.6243 23.9945 34.0953 23.9945 33.4649C23.9945 32.8348 23.83 32.3061 23.5002 31.8779C23.1706 31.4497 22.7165 31.2363 22.1389 31.2363Z" fill="#32B34A"/>
<path d="M35.0094 22.1992H8.59568C7.71425 22.1992 7 22.9187 7 23.8061V39.3929C7 40.2804 7.71444 40.9999 8.59568 40.9999H29.4474C29.2275 40.7899 29.1171 40.5443 29.1171 40.2626C29.1171 40.0328 29.1683 39.7915 29.2708 39.5393L30.2544 37.3366L27.5348 30.4983C27.455 30.3033 27.4153 30.0908 27.4153 29.861C27.4153 29.5625 27.5406 29.3097 27.7915 29.103C28.0424 28.8964 28.3046 28.7932 28.5785 28.7932C29.1826 28.7932 29.5933 29.0858 29.81 29.6715L31.503 34.3394L33.3162 29.6715C33.5442 29.0858 33.9544 28.7932 34.5478 28.7932C34.8213 28.7932 35.0835 28.8964 35.3346 29.103C35.5851 29.3097 35.711 29.5625 35.711 29.861C35.711 30.0908 35.6707 30.3033 35.591 30.4983L31.5631 40.3486C31.4529 40.6239 31.3201 40.8406 31.1656 40.9999H35.0096C35.8908 40.9999 36.6053 40.2804 36.6053 39.3929V23.8061C36.6049 22.9187 35.8906 22.1992 35.0094 22.1992ZM16.3532 32.6863C15.5193 33.4539 14.4715 33.8376 13.2094 33.8376H11.2267V36.7876C11.2267 37.2316 11.1016 37.5763 10.8515 37.8218C10.6014 38.0678 10.2797 38.1906 9.88732 38.1906C9.49401 38.1906 9.1725 38.0678 8.92258 37.8218C8.67227 37.5763 8.5475 37.2316 8.5475 36.7876V26.6782C8.5475 25.7428 9.01183 25.2751 9.94068 25.2751H13.1027C14.4243 25.2751 15.5166 25.674 16.3804 26.4712C17.2434 27.269 17.6751 28.3033 17.6751 29.5743C17.6747 30.8576 17.234 31.8945 16.3532 32.6863ZM26.6989 36.6656C26.6989 37.0457 26.5718 37.3669 26.3179 37.629C26.0632 37.8917 25.7395 38.0228 25.3466 38.0228C24.7683 38.0228 24.3464 37.7441 24.0811 37.1846C23.5141 37.8556 22.7395 38.1904 21.7573 38.1904C20.5784 38.1904 19.5866 37.7329 18.7834 36.8164C17.9801 35.9003 17.5788 34.7827 17.5788 33.4643C17.5788 32.1464 17.9803 31.0287 18.7834 30.1128C19.5868 29.197 20.5786 28.7387 21.7573 28.7387C22.7395 28.7387 23.5141 29.0735 24.0811 29.744C24.3464 29.1858 24.7683 28.9063 25.3466 28.9063C25.7395 28.9063 26.063 29.0379 26.3179 29.2998C26.5718 29.5629 26.6989 29.884 26.6989 30.2636V36.6656Z" fill="#04BE04"/>
</svg>
