<svg width="45" height="45" viewBox="0 0 45 45" fill="none" xmlns="http://www.w3.org/2000/svg">
<path fill-rule="evenodd" clip-rule="evenodd" d="M41.9595 0H3.04054C1.36824 0 0 1.36824 0 3.04054V41.9595C0 43.6318 1.36824 45 3.04054 45H41.9595C43.6318 45 45 43.6318 45 41.9595V3.04054C45 1.36824 43.6318 0 41.9595 0Z" fill="#A50064"/>
<path d="M31.1352 21.1318C34.7079 21.1318 37.5964 18.2433 37.5964 14.6706C37.5964 11.098 34.7079 8.20947 31.1352 8.20947C27.5626 8.20947 24.6741 11.098 24.6741 14.6706C24.6741 18.2433 27.5626 21.1318 31.1352 21.1318ZM31.1352 11.9189C32.6555 11.9189 33.8869 13.1504 33.8869 14.6706C33.8869 16.1909 32.6555 17.4223 31.1352 17.4223C29.615 17.4223 28.3835 16.1909 28.3835 14.6706C28.3835 13.1504 29.615 11.9189 31.1352 11.9189Z" fill="white"/>
<path d="M31.1352 23.9292C27.5626 23.9292 24.6741 26.8177 24.6741 30.3903C24.6741 33.963 27.5626 36.8515 31.1352 36.8515C34.7079 36.8515 37.5964 33.963 37.5964 30.3903C37.5964 26.8177 34.7079 23.9292 31.1352 23.9292ZM31.1352 33.142C29.615 33.142 28.3835 31.9106 28.3835 30.3903C28.3835 28.8701 29.615 27.6387 31.1352 27.6387C32.6555 27.6387 33.8869 28.8701 33.8869 30.3903C33.8869 31.9106 32.6555 33.142 31.1352 33.142Z" fill="white"/>
<path d="M17.9696 23.9292C16.875 23.9292 15.8716 24.2941 15.0659 24.9022C14.2601 24.2941 13.2416 23.9292 12.1622 23.9292C9.48649 23.9292 7.3125 26.1032 7.3125 28.7789V36.8667H11.022V28.7333C11.022 28.1251 11.5084 27.6387 12.1166 27.6387C12.7247 27.6387 13.2111 28.1251 13.2111 28.7333V36.8515H16.9206V28.7333C16.9206 28.1251 17.4071 27.6387 18.0152 27.6387C18.6233 27.6387 19.1098 28.1251 19.1098 28.7333V36.8515H22.8041V28.7637C22.8041 26.1032 20.6453 23.9292 17.9696 23.9292Z" fill="white"/>
<path d="M17.9697 8.20947C16.8751 8.20947 15.8717 8.57434 15.0659 9.18245C14.2602 8.57434 13.2416 8.20947 12.1622 8.20947C9.47135 8.20947 7.29736 10.3835 7.29736 13.0591V21.1318H11.0068V13.0135C11.0068 12.4054 11.4933 11.9189 12.1014 11.9189C12.7095 11.9189 13.196 12.4054 13.196 13.0135V21.1318H16.9055V13.0135C16.9055 12.4054 17.392 11.9189 18.0001 11.9189C18.6082 11.9189 19.0947 12.4054 19.0947 13.0135V21.1318H22.8041V13.0591C22.8041 10.3835 20.6453 8.20947 17.9697 8.20947Z" fill="white"/>
</svg>
