<svg width="52" height="52" viewBox="0 0 52 52" fill="none" xmlns="http://www.w3.org/2000/svg">
<path fill-rule="evenodd" clip-rule="evenodd" d="M0 14C0 11.7909 1.79086 10 4 10H8H44H48C50.2091 10 52 11.7909 52 14V18V34V38C52 40.2091 50.2091 42 48 42H44H8H4C3.86193 42 3.72549 41.993 3.59102 41.9793C1.574 41.7745 0 40.0711 0 38V34V18V14ZM1.5 17.8596V34.1404C4.71541 34.7503 7.24966 37.2846 7.8596 40.5H44.1404C44.7503 37.2846 47.2846 34.7503 50.5 34.1404V17.8596C47.2846 17.2497 44.7503 14.7154 44.1404 11.5H7.8596C7.24966 14.7154 4.71541 17.2497 1.5 17.8596Z" fill="#AAAAAA"/>
<path d="M28.4528 25.7289L24.3894 24.5923C23.9191 24.4628 23.5918 24.0419 23.5918 23.5743C23.5918 22.988 24.0884 22.5132 24.7017 22.5132H27.1961C27.6552 22.5132 28.1066 22.6463 28.4829 22.8909C28.7124 23.0383 29.0209 23.0024 29.2165 22.8189L30.5259 21.5959C30.793 21.3478 30.7554 20.9341 30.4581 20.7147C29.5364 20.0241 28.3851 19.6392 27.2037 19.6356V17.909C27.2037 17.5925 26.9328 17.3335 26.6017 17.3335H25.3977C25.0666 17.3335 24.7957 17.5925 24.7957 17.909V19.6356H24.7017C22.3051 19.6356 20.3787 21.6031 20.6007 23.9376C20.7587 25.5958 22.0831 26.9447 23.7536 27.4123L27.61 28.4914C28.0803 28.6245 28.4076 29.0417 28.4076 29.5094C28.4076 30.0957 27.911 30.5705 27.2977 30.5705H24.8033C24.3443 30.5705 23.8928 30.4374 23.5165 30.1928C23.287 30.0453 22.9785 30.0813 22.7829 30.2647L21.4736 31.4877C21.2064 31.7359 21.2441 32.1496 21.5413 32.369C22.4631 33.0596 23.6144 33.4445 24.7957 33.4481V35.1746C24.7957 35.4912 25.0666 35.7502 25.3977 35.7502H26.6017C26.9328 35.7502 27.2037 35.4912 27.2037 35.1746V33.4409C28.9569 33.4085 30.6011 32.4121 31.1805 30.8259C31.9894 28.6101 30.6312 26.3368 28.4528 25.7289Z" fill="#AAAAAA"/>
</svg>
