<svg width="14" height="15" viewBox="0 0 14 15" fill="none" xmlns="http://www.w3.org/2000/svg">
<path d="M7 0.00976562C7.23206 0.00976562 7.45462 0.101987 7.61872 0.266141C7.78281 0.430296 7.875 0.652937 7.875 0.885086V6.13701H13.125C13.3571 6.13701 13.5796 6.22923 13.7437 6.39338C13.9078 6.55754 14 6.78018 14 7.01233C14 7.24448 13.9078 7.46712 13.7437 7.63127C13.5796 7.79543 13.3571 7.88765 13.125 7.88765H7.875V13.1396C7.875 13.3717 7.78281 13.5944 7.61872 13.7585C7.45462 13.9227 7.23206 14.0149 7 14.0149C6.76794 14.0149 6.54538 13.9227 6.38128 13.7585C6.21719 13.5944 6.125 13.3717 6.125 13.1396V7.88765H0.875C0.642936 7.88765 0.420376 7.79543 0.256282 7.63127C0.0921874 7.46712 0 7.24448 0 7.01233C0 6.78018 0.0921874 6.55754 0.256282 6.39338C0.420376 6.22923 0.642936 6.13701 0.875 6.13701H6.125V0.885086C6.125 0.652937 6.21719 0.430296 6.38128 0.266141C6.54538 0.101987 6.76794 0.00976562 7 0.00976562Z" fill="#A1A1A7"/>
</svg>
