<svg width="30" height="31" viewBox="0 0 30 31" fill="none" xmlns="http://www.w3.org/2000/svg">
<g clip-path="url(#clip0_3111_6660)">
<path fill-rule="evenodd" clip-rule="evenodd" d="M15.18 30.2651C23.2986 30.2651 29.88 23.6006 29.88 15.3796C29.88 7.1586 23.2986 0.494141 15.18 0.494141C7.06141 0.494141 0.479996 7.1586 0.479996 15.3796C0.479996 23.6006 7.06141 30.2651 15.18 30.2651Z" fill="white"/>
<path fill-rule="evenodd" clip-rule="evenodd" d="M15.18 7.93701C14.6001 7.93701 14.13 8.41304 14.13 9.00026V14.3165H8.87999C8.3001 14.3165 7.82999 14.7925 7.82999 15.3798C7.82999 15.967 8.3001 16.443 8.87999 16.443H14.13V21.7592C14.13 22.3465 14.6001 22.8225 15.18 22.8225C15.7599 22.8225 16.23 22.3465 16.23 21.7592V16.443H21.48C22.0599 16.443 22.53 15.967 22.53 15.3798C22.53 14.7925 22.0599 14.3165 21.48 14.3165H16.23V9.00026C16.23 8.41304 15.7599 7.93701 15.18 7.93701Z" fill="black" fill-opacity="0.4"/>
</g>
<defs>
<clipPath id="clip0_3111_6660">
<rect width="29.4" height="29.771" fill="white" transform="translate(0.479996 0.494141)"/>
</clipPath>
</defs>
</svg>
