<svg width="30" height="31" viewBox="0 0 30 31" fill="none" xmlns="http://www.w3.org/2000/svg">
<g clip-path="url(#clip0_1154_6760)">
<path fill-rule="evenodd" clip-rule="evenodd" d="M15 30.0111C23.2843 30.0111 30 23.2929 30 15.0056C30 6.71821 23.2843 0 15 0C6.71573 0 0 6.71821 0 15.0056C0 23.2929 6.71573 30.0111 15 30.0111Z" fill="#F1F1F1"/>
<path fill-rule="evenodd" clip-rule="evenodd" d="M15 7.50293C14.4083 7.50293 13.9286 7.9828 13.9286 8.57476V13.9339H8.57143C7.97969 13.9339 7.5 14.4138 7.5 15.0057C7.5 15.5977 7.9797 16.0775 8.57143 16.0775H13.9286V21.4367C13.9286 22.0286 14.4083 22.5085 15 22.5085C15.5917 22.5085 16.0714 22.0286 16.0714 21.4367V16.0775H21.4286C22.0203 16.0775 22.5 15.5977 22.5 15.0057C22.5 14.4138 22.0203 13.9339 21.4286 13.9339H16.0714V8.57475C16.0714 7.9828 15.5917 7.50293 15 7.50293Z" fill="black" fill-opacity="0.4"/>
</g>
<defs>
<clipPath id="clip0_1154_6760">
<rect width="30" height="30.011" fill="white"/>
</clipPath>
</defs>
</svg>
