<svg width="28" height="28" viewBox="0 0 28 28" fill="none" xmlns="http://www.w3.org/2000/svg">
<path d="M7.00005 5.1998C7.00005 4.56329 7.2213 3.95284 7.61512 3.50275C8.00895 3.05266 8.54309 2.7998 9.10005 2.7998H18.9C19.457 2.7998 19.9911 3.05266 20.385 3.50275C20.7788 3.95284 21 4.56329 21 5.1998V5.9998H21.7C22.6283 5.9998 23.5185 6.42123 24.1749 7.17138C24.8313 7.92152 25.2 8.93894 25.2 9.9998V17.9998C25.2 18.6363 24.9788 19.2468 24.585 19.6969C24.1911 20.1469 23.657 20.3998 23.1 20.3998H21V22.7998C21 23.4363 20.7788 24.0468 20.385 24.4969C19.9911 24.9469 19.457 25.1998 18.9 25.1998H9.10005C8.54309 25.1998 8.00895 24.9469 7.61512 24.4969C7.2213 24.0468 7.00005 23.4363 7.00005 22.7998V20.3998H4.90005C4.34309 20.3998 3.80895 20.1469 3.41512 19.6969C3.0213 19.2468 2.80005 18.6363 2.80005 17.9998V9.9998C2.80005 8.93894 3.1688 7.92152 3.82518 7.17138C4.48155 6.42123 5.37179 5.9998 6.30005 5.9998H7.00005V5.1998ZM19.6 5.1998C19.6 4.98763 19.5263 4.78415 19.395 4.63412C19.2637 4.48409 19.0857 4.3998 18.9 4.3998H9.10005C8.9144 4.3998 8.73635 4.48409 8.60507 4.63412C8.4738 4.78415 8.40005 4.98763 8.40005 5.1998V5.9998H19.6V5.1998ZM8.40005 16.3998V22.7998C8.40005 23.012 8.4738 23.2155 8.60507 23.3655C8.73635 23.5155 8.9144 23.5998 9.10005 23.5998H18.9C19.0857 23.5998 19.2637 23.5155 19.395 23.3655C19.5263 23.2155 19.6 23.012 19.6 22.7998V16.3998C19.6 16.1876 19.5263 15.9841 19.395 15.8341C19.2637 15.6841 19.0857 15.5998 18.9 15.5998H9.10005C8.9144 15.5998 8.73635 15.6841 8.60507 15.8341C8.4738 15.9841 8.40005 16.1876 8.40005 16.3998Z" fill="white"/>
</svg>
