<svg width="15" height="15" viewBox="0 0 15 15" fill="none" xmlns="http://www.w3.org/2000/svg">
<path fill-rule="evenodd" clip-rule="evenodd" d="M7.28947 2C5.88662 2 4.54122 2.55728 3.54925 3.54925C2.55728 4.54122 2 5.88662 2 7.28947C2 8.69233 2.55728 10.0377 3.54925 11.0297C4.54122 12.0217 5.88662 12.5789 7.28947 12.5789C8.69233 12.5789 10.0377 12.0217 11.0297 11.0297C12.0217 10.0377 12.5789 8.69233 12.5789 7.28947C12.5789 5.88662 12.0217 4.54122 11.0297 3.54925C10.0377 2.55728 8.69233 2 7.28947 2ZM2.48859 2.48859C3.76186 1.21532 5.48879 0.5 7.28947 0.5C9.09015 0.5 10.8171 1.21532 12.0904 2.48859C13.3636 3.76186 14.0789 5.48879 14.0789 7.28947C14.0789 8.83722 13.5505 10.3305 12.5935 11.528L14.7509 13.6893C15.0436 13.9825 15.0432 14.4574 14.75 14.75C14.4568 15.0426 13.982 15.0422 13.6893 14.7491L11.5333 12.5892C10.3349 13.5489 8.83951 14.0789 7.28947 14.0789C5.48879 14.0789 3.76186 13.3636 2.48859 12.0904C1.21532 10.8171 0.5 9.09015 0.5 7.28947C0.5 5.48879 1.21532 3.76186 2.48859 2.48859Z" fill="black"/>
</svg>
