<svg width="19" height="5" viewBox="0 0 19 5" fill="none" xmlns="http://www.w3.org/2000/svg">
<path fill-rule="evenodd" clip-rule="evenodd" d="M2.46979 0.660512C1.43719 0.660512 0.600098 1.4976 0.600098 2.53021C0.600098 3.56281 1.43719 4.3999 2.46979 4.3999C3.5024 4.3999 4.33949 3.56281 4.33949 2.53021C4.33949 1.4976 3.5024 0.660512 2.46979 0.660512ZM7.66065 2.53021C7.66065 1.4976 8.49774 0.660508 9.53034 0.660508C10.5629 0.660508 11.4 1.4976 11.4 2.53021C11.4 3.56281 10.5629 4.3999 9.53034 4.3999C8.49774 4.3999 7.66065 3.56281 7.66065 2.53021ZM14.8607 2.53021C14.8607 1.4976 15.6978 0.660511 16.7304 0.660511C17.763 0.660511 18.6001 1.4976 18.6001 2.53021C18.6001 3.56281 17.763 4.3999 16.7304 4.3999C15.6978 4.3999 14.8607 3.56281 14.8607 2.53021Z" fill="black" fill-opacity="0.4"/>
</svg>
